<svg width="55" height="55" viewBox="0 0 55 55" fill="none" xmlns="http://www.w3.org/2000/svg">
<g clip-path="url(#clip0_5:23)">
<path d="M38.4381 0.0275241C38.3212 -0.103101 34.1103 0.0790867 30.4459 4.05627C26.7815 8.03002 27.3453 12.5881 27.4278 12.705C27.5103 12.8219 32.6528 13.0041 35.9356 8.38065C39.2184 3.75721 38.555 0.161587 38.4381 0.0275241ZM49.83 40.3597C49.665 40.0297 41.8378 36.1178 42.5665 28.5966C43.2953 21.0719 48.3243 19.0094 48.4034 18.786C48.4825 18.5625 46.3512 16.0703 44.0928 14.8088C42.4346 13.9193 40.5994 13.4097 38.72 13.3169C38.3487 13.3066 37.0597 12.9903 34.4093 13.7156C32.6631 14.1935 28.7272 15.7403 27.6443 15.8022C26.5581 15.8641 23.3268 14.0078 19.8515 13.5163C17.6275 13.0866 15.2693 13.9666 13.5815 14.6438C11.8972 15.3175 8.69341 17.2357 6.45216 22.3335C4.21091 27.4278 5.3831 35.4991 6.22185 38.0085C7.0606 40.5144 8.37029 44.6222 10.5978 47.6197C12.5778 51.0022 15.204 53.35 16.3006 54.1475C17.3972 54.945 20.4909 55.4744 22.6359 54.3778C24.3615 53.3191 27.4759 52.7106 28.7065 52.7553C29.9337 52.8 32.3537 53.2847 34.8322 54.6081C36.795 55.2853 38.6512 55.0035 40.5109 54.2472C42.3706 53.4875 45.0622 50.6069 48.204 44.7666C49.3968 42.051 49.94 40.5831 49.83 40.3597Z" fill="black"/>
<path d="M38.4381 0.0275241C38.3212 -0.103101 34.1103 0.0790867 30.4459 4.05627C26.7815 8.03002 27.3453 12.5881 27.4278 12.705C27.5103 12.8219 32.6528 13.0041 35.9356 8.38065C39.2184 3.75721 38.555 0.161587 38.4381 0.0275241ZM49.83 40.3597C49.665 40.0297 41.8378 36.1178 42.5665 28.5966C43.2953 21.0719 48.3243 19.0094 48.4034 18.786C48.4825 18.5625 46.3512 16.0703 44.0928 14.8088C42.4346 13.9193 40.5994 13.4097 38.72 13.3169C38.3487 13.3066 37.0597 12.9903 34.4093 13.7156C32.6631 14.1935 28.7272 15.7403 27.6443 15.8022C26.5581 15.8641 23.3268 14.0078 19.8515 13.5163C17.6275 13.0866 15.2693 13.9666 13.5815 14.6438C11.8972 15.3175 8.69341 17.2357 6.45216 22.3335C4.21091 27.4278 5.3831 35.4991 6.22185 38.0085C7.0606 40.5144 8.37029 44.6222 10.5978 47.6197C12.5778 51.0022 15.204 53.35 16.3006 54.1475C17.3972 54.945 20.4909 55.4744 22.6359 54.3778C24.3615 53.3191 27.4759 52.7106 28.7065 52.7553C29.9337 52.8 32.3537 53.2847 34.8322 54.6081C36.795 55.2853 38.6512 55.0035 40.5109 54.2472C42.3706 53.4875 45.0622 50.6069 48.204 44.7666C49.3968 42.051 49.94 40.5831 49.83 40.3597Z" fill="black"/>
</g>
<defs>
<clipPath id="clip0_5:23">
<rect width="55" height="55" fill="white"/>
</clipPath>
</defs>
</svg>
