<svg width="30" height="30" viewBox="0 0 30 30" fill="none" xmlns="http://www.w3.org/2000/svg">
<path d="M1.08852 0.880182C1.02235 0.612086 0.751367 0.448395 0.483271 0.514569C0.215174 0.580742 0.0514834 0.851721 0.117657 1.11982L1.08852 0.880182ZM29.3651 25.6177C29.5374 25.4019 29.5021 25.0873 29.2863 24.915L25.7695 22.1075C25.5537 21.9352 25.2391 21.9705 25.0668 22.1863C24.8945 22.4021 24.9298 22.7167 25.1456 22.889L28.2717 25.3846L25.7761 28.5106C25.6038 28.7264 25.6391 29.041 25.8549 29.2133C26.0707 29.3856 26.3853 29.3503 26.5576 29.1345L29.3651 25.6177ZM0.117657 1.11982C2.78698 11.9344 8.13804 18.327 13.7804 21.9045C19.4082 25.4728 25.296 26.2214 29.0301 25.8026L28.9186 24.8089C25.3963 25.2039 19.7392 24.4986 14.3159 21.06C8.90713 17.6306 3.70077 11.4635 1.08852 0.880182L0.117657 1.11982Z" fill="black"/>
</svg>
