<svg width="55" height="55" viewBox="0 0 55 55" fill="none" xmlns="http://www.w3.org/2000/svg">
<path d="M27.9188 2.00417L28.1918 2.00208C32.7329 2.00208 36.9843 3.24625 40.623 5.41363L40.5104 5.35111C44.6892 7.73894 48.0786 11.2964 50.2616 15.5857L50.3262 15.7254L29.6214 14.6417C26.7122 14.4461 23.8168 15.1882 21.3604 16.759L21.4146 16.7257C19.0212 18.1741 17.2036 20.407 16.2712 23.0445L16.2462 23.1278L8.54362 11.2906C10.8443 8.41653 13.7626 6.09733 17.0819 4.505L17.2277 4.44247C20.5602 2.83695 24.2114 2.00216 27.9105 2H27.9146L27.9188 2.00417ZM7.0723 13.3058L16.4775 31.8119C17.7421 34.3751 19.7756 36.4792 22.294 37.8306L22.3669 37.866C24.1488 38.8474 26.1513 39.3587 28.1855 39.3519C29.0171 39.3519 29.8298 39.2686 30.6134 39.1081L30.5363 39.1206L24.1175 51.706C20.2614 51.1036 16.5999 49.6066 13.4261 47.3351C10.2524 45.0635 7.65455 42.0804 5.84065 38.6246L5.77604 38.4871C3.94046 34.9901 2.9875 31.0974 3.00012 27.1479V26.9958V26.8603C3.00012 21.8107 4.52146 17.1196 7.13066 13.2141L7.07439 13.3037L7.0723 13.3058ZM51.3307 18.022C52.4163 20.7806 52.9816 23.7165 52.9979 26.6811V26.6915L53 27.05C53 29.978 52.504 32.7914 51.5891 35.409L51.6433 35.2318C50.6742 38.0115 49.2168 40.5959 47.3398 42.8635L47.3731 42.8218C45.4862 45.1336 43.2017 47.0899 40.6272 48.5987L40.5104 48.6634C36.7457 50.8795 32.4541 52.042 28.0855 52.029C27.5687 52.029 27.0539 52.0124 26.5454 51.9811L26.6163 51.9853L37.9179 34.6004C39.5532 32.2134 40.3613 29.3563 40.2187 26.4664L40.2208 26.4956C40.1685 23.6387 39.1111 20.8915 37.2344 18.7368L37.2469 18.7514L51.3307 18.022ZM28.0063 18.5805C30.2412 18.5816 32.3842 19.4699 33.9644 21.0501C35.5447 22.6304 36.433 24.7734 36.4341 27.0083C36.433 29.2431 35.5447 31.3861 33.9644 32.9664C32.3842 34.5467 30.2412 35.435 28.0063 35.4361C25.7715 35.435 23.6285 34.5467 22.0482 32.9664C20.4679 31.3861 19.5796 29.2431 19.5785 27.0083C19.5796 24.7734 20.4679 22.6304 22.0482 21.0501C23.6285 19.4699 25.7715 18.5816 28.0063 18.5805Z" fill="black"/>
</svg>
