<svg width="65" height="53" viewBox="0 0 65 53" fill="none" xmlns="http://www.w3.org/2000/svg">
<path d="M58.2292 3.3125H9.47917C6.5 3.3125 4.0625 5.3 4.0625 7.72917V34.2292C4.0625 36.6583 6.5 38.6458 9.47917 38.6458H26.7822C27.5344 38.6458 28.0173 39.4452 27.6674 40.1111L24.4301 46.2702C24.3937 46.3393 24.3438 46.4004 24.2832 46.4498C23.8605 46.7945 24.1042 47.4792 24.6497 47.4792H43.0586C43.6041 47.4792 43.8479 46.7945 43.4251 46.4498C43.3645 46.4004 43.3146 46.3393 43.2782 46.2702L40.041 40.1111C39.691 39.4452 40.1739 38.6458 40.9262 38.6458H58.2292C61.2083 38.6458 63.6458 36.6583 63.6458 34.2292V7.72917C63.6458 5.3 61.2083 3.3125 58.2292 3.3125ZM60.9375 34.3333C60.9375 34.8856 60.4898 35.3333 59.9375 35.3333H7.77083C7.21855 35.3333 6.77083 34.8856 6.77083 34.3333V6.52083C6.77083 5.96855 7.21855 5.52083 7.77083 5.52083H59.9375C60.4898 5.52083 60.9375 5.96855 60.9375 6.52083V34.3333Z" fill="black"/>
</svg>
