<svg width="55" height="55" viewBox="0 0 55 55" fill="none" xmlns="http://www.w3.org/2000/svg">
<path fill-rule="evenodd" clip-rule="evenodd" d="M18.1055 4.144C20.6647 4.02618 21.4807 4 28 4C34.5193 4 35.3353 4.02836 37.8924 4.144C40.4495 4.25964 42.1949 4.66764 43.7222 5.25891C45.3215 5.86327 46.7724 6.808 47.9724 8.02982C49.1942 9.22764 50.1367 10.6764 50.7389 12.2778C51.3324 13.8051 51.7382 15.5505 51.856 18.1033C51.9738 20.6669 52 21.4829 52 28C52 34.5193 51.9716 35.3353 51.856 37.8945C51.7404 40.4473 51.3324 42.1927 50.7389 43.72C50.1367 45.3217 49.1926 46.7728 47.9724 47.9724C46.7724 49.1942 45.3215 50.1367 43.7222 50.7389C42.1949 51.3324 40.4495 51.7382 37.8967 51.856C35.3353 51.9738 34.5193 52 28 52C21.4807 52 20.6647 51.9716 18.1055 51.856C15.5527 51.7404 13.8073 51.3324 12.28 50.7389C10.6784 50.1367 9.22724 49.1926 8.02764 47.9724C6.80665 46.7738 5.86178 45.3234 5.25891 43.7222C4.66764 42.1949 4.26182 40.4495 4.144 37.8967C4.02618 35.3331 4 34.5171 4 28C4 21.4807 4.02836 20.6647 4.144 18.1076C4.25964 15.5505 4.66764 13.8051 5.25891 12.2778C5.86267 10.6765 6.80826 9.22614 8.02982 8.02764C9.22772 6.80691 10.6774 5.86206 12.2778 5.25891C13.8051 4.66764 15.5505 4.26182 18.1033 4.144H18.1055ZM37.6982 8.464C35.1673 8.34836 34.408 8.32436 28 8.32436C21.592 8.32436 20.8327 8.34836 18.3018 8.464C15.9607 8.57091 14.6909 8.96145 13.8444 9.29091C12.7251 9.72727 11.9244 10.2444 11.0844 11.0844C10.2881 11.859 9.6753 12.8021 9.29091 13.8444C8.96145 14.6909 8.57091 15.9607 8.464 18.3018C8.34836 20.8327 8.32436 21.592 8.32436 28C8.32436 34.408 8.34836 35.1673 8.464 37.6982C8.57091 40.0393 8.96145 41.3091 9.29091 42.1556C9.67491 43.1964 10.288 44.1411 11.0844 44.9156C11.8589 45.712 12.8036 46.3251 13.8444 46.7091C14.6909 47.0385 15.9607 47.4291 18.3018 47.536C20.8327 47.6516 21.5898 47.6756 28 47.6756C34.4102 47.6756 35.1673 47.6516 37.6982 47.536C40.0393 47.4291 41.3091 47.0385 42.1556 46.7091C43.2749 46.2727 44.0756 45.7556 44.9156 44.9156C45.712 44.1411 46.3251 43.1964 46.7091 42.1556C47.0385 41.3091 47.4291 40.0393 47.536 37.6982C47.6516 35.1673 47.6756 34.408 47.6756 28C47.6756 21.592 47.6516 20.8327 47.536 18.3018C47.4291 15.9607 47.0385 14.6909 46.7091 13.8444C46.2727 12.7251 45.7556 11.9244 44.9156 11.0844C44.1409 10.2882 43.1979 9.67537 42.1556 9.29091C41.3091 8.96145 40.0393 8.57091 37.6982 8.464ZM24.9345 35.3985C26.6465 36.1112 28.5528 36.2074 30.3278 35.6707C32.1029 35.134 33.6365 33.9976 34.6668 32.4558C35.6971 30.914 36.1601 29.0623 35.9768 27.217C35.7935 25.3716 34.9753 23.6472 33.6618 22.3382C32.8245 21.5014 31.8121 20.8607 30.6975 20.4621C29.5828 20.0636 28.3937 19.9172 27.2156 20.0333C26.0376 20.1495 24.9 20.5255 23.8847 21.1341C22.8694 21.7427 22.0016 22.5689 21.3439 23.5531C20.6862 24.5374 20.255 25.6552 20.0811 26.8261C19.9073 27.997 19.9952 29.1919 20.3386 30.3248C20.682 31.4576 21.2723 32.5002 22.067 33.3776C22.8617 34.2549 23.8411 34.9451 24.9345 35.3985ZM19.2771 19.2771C20.4226 18.1316 21.7825 17.2229 23.2792 16.603C24.7759 15.983 26.38 15.6639 28 15.6639C29.62 15.6639 31.2241 15.983 32.7208 16.603C34.2175 17.2229 35.5774 18.1316 36.7229 19.2771C37.8684 20.4226 38.7771 21.7825 39.397 23.2792C40.017 24.7759 40.3361 26.38 40.3361 28C40.3361 29.62 40.017 31.2241 39.397 32.7208C38.7771 34.2175 37.8684 35.5774 36.7229 36.7229C34.4095 39.0364 31.2717 40.3361 28 40.3361C24.7283 40.3361 21.5906 39.0364 19.2771 36.7229C16.9636 34.4095 15.6639 31.2717 15.6639 28C15.6639 24.7283 16.9636 21.5906 19.2771 19.2771ZM43.072 17.5011C43.3559 17.2333 43.5831 16.9113 43.7403 16.5541C43.8975 16.1969 43.9814 15.8119 43.9871 15.4217C43.9928 15.0315 43.9201 14.6441 43.7734 14.2825C43.6267 13.9209 43.4089 13.5924 43.133 13.3164C42.8571 13.0405 42.5286 12.8227 42.167 12.676C41.8054 12.5293 41.418 12.4567 41.0278 12.4624C40.6376 12.4681 40.2525 12.552 39.8953 12.7092C39.5382 12.8663 39.2161 13.0936 38.9484 13.3775C38.4276 13.9295 38.1425 14.6628 38.1535 15.4217C38.1646 16.1805 38.471 16.9052 39.0076 17.4418C39.5443 17.9785 40.2689 18.2849 41.0278 18.2959C41.7866 18.307 42.5199 18.0219 43.072 17.5011Z" fill="black"/>
</svg>
