<svg width="55" height="55" viewBox="0 0 55 55" fill="none" xmlns="http://www.w3.org/2000/svg">
<path d="M29.542 26.5773L37.6468 18.4724L11.4685 3.75932C9.73352 2.82194 8.10817 2.69037 6.68291 3.71547L29.542 26.5773ZM39.0282 36.0662L47.4537 31.3272C49.0983 30.4063 50 29.1016 50 27.6544C50 26.21 49.0982 24.9026 47.4565 23.9816L39.8285 19.6976L31.2413 28.2821L39.0282 36.0662ZM5.27409 5.7081C5.09867 6.24805 5 6.85105 5 7.51161V47.8165C5 48.8607 5.23024 49.7597 5.64685 50.4751L27.8399 28.2794L5.27409 5.7081ZM29.542 29.9787L7.47229 52.0511C7.89438 52.2128 8.34937 52.2978 8.82903 52.2978C9.68419 52.2978 10.575 52.0457 11.4822 51.5413L36.8492 37.2969L29.542 29.9787Z" fill="black"/>
</svg>
