<svg xmlns="http://www.w3.org/2000/svg" width="32" height="32">
    <path style="stroke:none;fill-rule:nonzero;fill:#000;fill-opacity:1" d="M16 6.5c-3.418 0-6.195 2.688-6.195 6 0 3.313 2.777 6 6.195 6s6.195-2.688 6.195-6c0-3.313-2.777-6-6.195-6zm0 9c-1.71 0-3.098-1.344-3.098-3s1.387-3 3.098-3c1.71 0 3.098 1.344 3.098 3s-1.387 3-3.098 3zm0-15C7.16.5 0 7.438 0 16c0 8.563 7.16 15.5 16 15.5S32 24.562 32 16C32 7.437 24.84.5 16 .5zm0 28a13.087 13.087 0 0 1-8.395-3.023 5.598 5.598 0 0 1 4.493-2.47c1.34.4 2.617.598 3.902.598 1.285 0 2.563-.19 3.902-.597a5.618 5.618 0 0 1 4.493 2.469A13.087 13.087 0 0 1 16 28.5zm10.496-5.258A8.655 8.655 0 0 0 19.715 20c-.656 0-1.676.602-3.715.602-2.031 0-3.059-.602-3.715-.602a8.673 8.673 0 0 0-6.781 3.242A12.132 12.132 0 0 1 3.098 16C3.098 9.105 8.883 3.5 16 3.5c7.117 0 12.902 5.605 12.902 12.5 0 2.7-.894 5.2-2.406 7.242zm0 0"/>
</svg>
